<?xml version="1.0" encoding="UTF-8"?><svg id="Capa_2" xmlns="http://www.w3.org/2000/svg" viewBox="0 0 72.62 36.62"><defs><style>.cls-1{fill:#1d1d1b;}</style></defs><g id="Capa_1-2"><g><path class="cls-1" d="m10.4,34.96c-.41,0-.82-.14-1.14-.42-.48-.42-.65-1.07-.44-1.74.55-1.76.1-3.23-.17-3.32-.1-.03-.15,0-.18.02-.17.14-.32.57-.26,1.21.08.73.06,1.24-.28,1.55-.3.29-.72.26-1.09.2-.82-.14-.81-.71-.81-1.02,0-.22,0-.47-.17-.84-.01-.02-.02-.04-.03-.05-.15.06-.45.34-.66.63-.62,1.55-1.33,3.08-2.51,3.54-.54.21-1.12.17-1.72-.12-.46-.22-.77-.59-.9-1.07-.38-1.43.95-3.45,1.1-3.68l2.57-4.11.84.53-2.58,4.13c-.49.73-1.18,2.13-.98,2.88.06.2.17.34.37.44.35.17.65.2.93.09.78-.3,1.41-1.64,1.97-3.04l.05-.1c.19-.28.88-1.17,1.62-1.11.2.02.58.12.82.63.27.57.26,1.01.26,1.27,0,.01,0,.02,0,.03.1.02.17.02.21.02.01-.09.02-.28-.02-.69-.1-.92.14-1.7.62-2.09.32-.26.72-.32,1.12-.19,1.15.38,1.37,2.72.8,4.56-.09.3-.05.53.14.7.21.18.54.23.79.11.35-.16.41-.57.4-.88-.01-.44-.04-.85-.06-1.25-.1-1.63-.19-3.05.77-4.23l1.12-1.83.85.52-1.18,1.92c-.73.89-.67,2.01-.57,3.57.03.41.05.84.06,1.28.02.84-.33,1.5-.97,1.8-.23.11-.48.16-.73.16Zm9.48-18.69l-.85-.52,4.65-7.59,1.32-6.63H4.74l-1.3,6.67h12.46l-5.04,8.06-.84-.53,4.09-6.53H2.23L3.92.53h22.3l-1.59,8-4.74,7.75Z"/><path class="cls-1" d="m29.83,36.62c-.66,0-1.2-.26-1.57-.75-1.21-1.58-.28-5.18-.17-5.58l1.39-4.46.95.29-1.38,4.45c-.26.95-.77,3.69,0,4.7.19.24.43.35.78.35,1.82,0,2-.81,2.26-2.81.05-.4.11-.81.19-1.25.22-1.23.62-1.92,1.22-2.1.44-.14.93.02,1.34.44.07.07.11.14.14.22-.03-.97.25-1.98.72-2.34.26-.2.59-.23.87-.07.51.28.46.87.43,1.34-.05.75.02.85.31.91.22.04.31.01.33,0,.12-.1.1-.73.09-1.1,0-.28-.01-.6,0-.93l.02-.11.55-1.95.96.27-.54,1.89c-.01.27,0,.54,0,.8.02.79.03,1.48-.44,1.88-.28.23-.67.31-1.15.21-.94-.18-1.12-.88-1.14-1.46-.05.37-.05.81.05,1.23.18.71.32,1.59-.14,2.15-.27.33-.7.48-1.26.45-.39-.02-.61-.22-.73-.38-.37-.51-.18-1.29,0-1.98.04-.14.08-.33.1-.45-.1-.07-.18-.1-.22-.09,0,0-.32.11-.54,1.33-.07.41-.13.81-.18,1.2-.25,1.89-.48,3.68-3.25,3.68Zm4.88-4.31c.16,0,.36,0,.44-.09.06-.07.18-.34-.06-1.27-.03-.13-.06-.27-.08-.41-.02.19-.07.41-.14.65-.07.28-.23.9-.17,1.12Zm7.41-16.17l-.96-.27,4.08-14.35h-7.83l-10.16,4.11,1.88,6.01,6.65-2.75-2.24,7.21-.95-.29,1.61-5.19-5.7,2.36-2.48-7.92L37.21.53h9.34l-4.44,15.61Z"/><path class="cls-1" d="m50.3,35.32c-.68,0-1.21-.21-1.57-.63-.77-.89-.53-2.41-.36-3.53.05-.34.11-.7.1-.86-.01-.21-.02-.38-.02-.53,0-.11,0-.23-.01-.31-.03,0-.08-.02-.16-.04-.21-.04-.27-.01-.27-.01-.07.04-.18.29-.37,1.2-.41,1.97-1.95,1.7-2.88,1.54-.29-.05-.53-.21-.68-.45-.37-.59-.09-1.51.18-2.39.1-.33.2-.66.21-.84.04-.47-.4-1.51-.68-2.05l-.04-.1-.05-.18.96-.25.03.12c.16.31.83,1.69.77,2.54-.02.28-.13.64-.25,1.05-.12.41-.41,1.38-.28,1.59,1.12.19,1.53.17,1.73-.77.24-1.17.45-2.19,1.78-1.96.99.17,1,.75,1,1.31,0,.14,0,.29.02.48.02.27-.04.63-.11,1.08-.14.87-.35,2.18.12,2.72.18.2.46.3.88.29.49-.01.83-.12,1.04-.34.4-.42.38-1.29.36-2.21-.01-.57-.03-1.16.06-1.7.18-1.13.59-2.58,1.52-3.06.29-.15.75-.26,1.32.02.83.41.76,1.27.72,1.89-.05.64-.06,1.04.32,1.3.3.21.58.23.88.06.45-.25.78-.86.76-1.39-.05-.93.2-1.58.68-1.85.23-.12.71-.26,1.37.21.64.46.41,1.41.19,2.33-.14.57-.33,1.35-.17,1.62.01.02.04.07.17.1.37.08.64.06.83-.08.38-.27.5-1.02.56-1.55.1-.87.72-1.6,1.26-2,.29-.2.71-.43,1.09-.35.56.12,1.4.1,2.2-1.54l.89.43c-.81,1.67-1.91,2.37-3.28,2.08-.26.05-1.1.7-1.19,1.47-.09.84-.28,1.76-.98,2.26-.43.31-.98.38-1.63.23-.35-.08-.62-.27-.79-.54-.38-.62-.16-1.51.05-2.38.1-.42.28-1.13.18-1.3-.18-.12-.28-.13-.3-.13-.05.03-.2.3-.17.93.05.9-.49,1.87-1.27,2.3-.63.35-1.33.31-1.94-.12-.86-.6-.79-1.52-.74-2.19.05-.67.02-.83-.17-.93-.21-.11-.34-.07-.42-.03-.32.17-.75.86-.99,2.33-.07.45-.06.99-.05,1.52.03,1.08.05,2.2-.63,2.92-.39.41-.98.63-1.74.65-.03,0-.05,0-.08,0Zm18.42-19.26l-.98-.17c.87-4.91.58-8.66-.86-11.13-1.48-2.53-3.94-3.76-7.55-3.76s-6.7,1.3-9.21,3.86c-2.45,2.5-4.19,6.26-5.19,11.17l-.97-.2c1.03-5.1,2.87-9.03,5.45-11.67,2.7-2.76,6.04-4.16,9.92-4.16s6.76,1.43,8.41,4.26c1.56,2.69,1.89,6.66.98,11.81Zm-15.06,0l-.97-.2c.58-2.82,1.2-4.8,1.92-6.05.81-1.42,1.9-2.15,3.23-2.15.97,0,2.21.41,2.58,2.34.25,1.3.12,3.27-.41,6.04l-.98-.19c.5-2.61.63-4.52.41-5.67-.26-1.36-1-1.54-1.6-1.54-.96,0-1.74.54-2.37,1.64-.65,1.14-1.26,3.08-1.81,5.76Z"/><g><path class="cls-1" d="m5.98,20.04c0,.48-.09.92-.27,1.31-.18.39-.43.72-.75,1-.31.28-.68.5-1.11.65-.42.15-.87.23-1.35.23h-1.5v1.83c0,.07-.03.14-.08.19s-.12.08-.19.08-.14-.03-.19-.08-.08-.12-.08-.19v-8.08s0-.07-.01-.1c0-.03,0-.06,0-.09,0-.03.03-.05.07-.06.04-.01.1-.02.19-.02h1.8c.47,0,.92.08,1.35.25.42.17.79.4,1.11.7.31.3.56.65.75,1.06.18.41.27.85.27,1.33Zm-.55,0c0-.4-.08-.77-.23-1.11s-.36-.64-.63-.88c-.26-.25-.57-.44-.93-.58-.36-.14-.73-.21-1.13-.21h-1.5v5.43h1.5c.4,0,.78-.06,1.13-.18.36-.12.67-.3.93-.53.26-.23.47-.51.63-.83.15-.33.23-.69.23-1.09Z"/><path class="cls-1" d="m12.56,25.06c0,.07-.03.14-.08.19s-.12.08-.19.08h-5.54c-.07,0-.13-.03-.18-.08s-.07-.12-.07-.19v-8.07s0-.07-.01-.1c0-.03,0-.06,0-.09,0-.03.03-.05.07-.06.04-.01.1-.02.19-.02.1,0,.18.03.23.08.05.05.08.12.08.19v7.79h5.24c.07,0,.14.03.19.08s.08.12.08.19Z"/><path class="cls-1" d="m16.6,16.71c.05,0,.11.01.17.04.06.03.1.07.13.14l3.16,8.08c.03.07.03.14,0,.21-.03.07-.08.12-.16.14-.07.03-.14.03-.21,0-.07-.03-.12-.08-.14-.16l-.85-2.15h-4.1l-.83,2.15c-.03.07-.08.13-.14.16-.07.03-.14.03-.21,0-.07-.03-.13-.08-.16-.14-.03-.07-.03-.14,0-.21l3.12-7.98s0-.07,0-.1c0-.03,0-.06,0-.09,0-.03.03-.05.06-.06.03-.01.09-.02.18-.02Zm-1.79,5.76h3.68l-1.85-4.69-1.83,4.69Z"/><path class="cls-1" d="m25.64,16.79c.05.05.08.11.08.18s-.03.14-.08.2l-3.49,3.49v4.4c0,.07-.03.14-.08.19s-.12.08-.19.08-.14-.03-.19-.08-.08-.12-.08-.19v-4.4l-3.49-3.49c-.05-.05-.08-.12-.08-.2s.03-.14.08-.18c.13-.13.26-.13.38,0l3.38,3.36,3.38-3.36c.13-.13.26-.13.38,0Z"/><path class="cls-1" d="m29.12,24.79c.38,0,.75-.07,1.11-.2.36-.13.69-.31.98-.54.29-.23.54-.49.73-.8.2-.31.32-.64.38-.99h-2.37c-.07,0-.14-.03-.19-.08s-.08-.12-.08-.19.03-.14.08-.19c.05-.06.12-.08.19-.08h2.69c.07,0,.13.04.18.09.05.05.07.11.07.18v3.08c0,.07-.03.14-.08.19s-.12.08-.19.08-.14-.03-.19-.08c-.05-.05-.08-.12-.08-.19v-1.57c-.08.24-.23.47-.44.69-.21.22-.46.42-.75.59-.29.17-.61.31-.96.41-.35.1-.71.15-1.07.15-.59,0-1.15-.11-1.66-.34-.52-.22-.96-.53-1.33-.92-.37-.39-.67-.85-.88-1.37-.21-.52-.32-1.08-.32-1.68s.11-1.15.34-1.67c.22-.52.53-.98.92-1.37.39-.39.85-.69,1.37-.92.52-.23,1.08-.34,1.67-.34.36,0,.69.03.99.1.3.06.57.16.83.29.26.13.5.29.73.47.23.19.47.41.72.66.05.05.08.12.08.19s-.03.14-.08.19-.12.08-.19.08c-.08,0-.16-.04-.23-.12-.41-.45-.84-.78-1.3-.99-.46-.21-.97-.32-1.55-.32-.52,0-1.01.1-1.46.29-.46.2-.85.46-1.2.81-.34.34-.61.74-.81,1.2-.2.46-.29.94-.29,1.46s.09,1.01.28,1.46c.19.46.44.85.77,1.2.32.34.71.61,1.16.81.45.2.93.29,1.45.29Z"/><path class="cls-1" d="m39.19,20.04c0,.7-.18,1.3-.55,1.81-.37.5-.85.87-1.46,1.11l1.96,1.9s.07.11.08.19c0,.08-.01.15-.07.19s-.12.07-.19.08c-.07,0-.14-.02-.21-.08l-2.19-2.09c-.27.05-.56.08-.85.08h-1.5v1.83c0,.07-.03.14-.08.19s-.12.08-.19.08-.14-.03-.19-.08-.08-.12-.08-.19v-8.08s0-.07-.01-.1c0-.03,0-.06,0-.09,0-.03.03-.05.07-.06.04-.01.1-.02.19-.02h1.8c.47,0,.92.08,1.35.25.42.17.79.4,1.11.7.31.3.56.65.75,1.06.18.41.27.85.27,1.33Zm-.55,0c0-.4-.08-.77-.23-1.11s-.36-.64-.63-.88c-.26-.25-.57-.44-.93-.58-.36-.14-.73-.21-1.13-.21h-1.5v5.43h1.5c.4,0,.78-.06,1.13-.18.36-.12.67-.3.93-.53s.47-.51.63-.83c.15-.33.23-.69.23-1.09Z"/><path class="cls-1" d="m39.88,21.03c0-.59.11-1.15.34-1.67.22-.52.53-.98.92-1.37.39-.39.85-.69,1.37-.92.52-.23,1.08-.34,1.67-.34s1.15.11,1.67.34c.52.23.98.54,1.37.92.39.39.7.84.92,1.37.23.52.34,1.08.34,1.67s-.11,1.15-.34,1.68-.54.98-.92,1.37c-.39.39-.84.7-1.37.92-.52.22-1.08.34-1.67.34s-1.15-.11-1.67-.34c-.52-.22-.98-.53-1.37-.92-.39-.39-.7-.85-.92-1.37-.22-.52-.34-1.08-.34-1.68Zm.55,0c0,.52.1,1.01.29,1.46s.46.85.81,1.2c.34.34.74.61,1.2.81s.94.29,1.46.29,1.01-.1,1.46-.29c.46-.2.85-.46,1.2-.81s.61-.74.81-1.2c.2-.46.29-.94.29-1.46s-.1-1.01-.29-1.46c-.2-.46-.47-.85-.81-1.2-.34-.34-.74-.61-1.2-.81-.46-.2-.94-.29-1.46-.29s-1.01.1-1.46.29c-.46.2-.85.46-1.2.81-.34.34-.61.74-.81,1.2-.2.46-.29.94-.29,1.46Z"/><path class="cls-1" d="m49.43,16.99s0-.07-.01-.1c0-.03,0-.06,0-.09,0-.03.03-.05.07-.06.04-.01.1-.02.19-.02.1,0,.18.03.23.08s.08.12.08.19v5.03c0,.38.07.74.22,1.08.15.34.34.63.59.88.25.25.54.45.88.59.34.14.7.21,1.08.21s.74-.07,1.08-.21c.34-.14.63-.34.88-.59.25-.25.45-.54.6-.88.15-.34.23-.7.23-1.08v-5.03s0-.07-.01-.1c0-.03,0-.06,0-.09s.03-.05.07-.06c.04-.01.1-.02.19-.02.1,0,.18.03.23.08s.08.12.08.19v5h0c0,.48-.09.91-.26,1.31-.17.4-.41.75-.71,1.05-.3.3-.65.54-1.06.71-.41.17-.84.26-1.31.26s-.9-.09-1.3-.26c-.4-.17-.75-.41-1.05-.71-.3-.3-.54-.65-.71-1.05-.17-.4-.26-.83-.26-1.3v-5.02Z"/><path class="cls-1" d="m64.72,25.06c0,.07-.03.14-.08.19s-.12.08-.19.08-.13-.01-.16-.04c-.04-.03-.07-.06-.11-.11l-6.44-7.45v7.33c0,.07-.03.14-.08.19s-.12.08-.19.08-.14-.03-.19-.08-.08-.12-.08-.19v-8.09s0-.07-.01-.1c0-.03-.01-.06,0-.08,0-.02.02-.04.06-.05.04-.01.1-.02.21-.02.05,0,.1.02.14.06.04.04.09.09.16.16.08.08.19.2.33.36.14.16.35.39.62.7s.65.75,1.12,1.3c.47.55,1.07,1.24,1.78,2.08.71.83,1.57,1.84,2.58,3.03v-7.42s0-.07-.02-.1c-.01-.03-.02-.06-.01-.08,0-.02.03-.04.07-.05.04-.01.11-.02.21-.02.15,0,.23.03.26.08.03.05.04.11.04.18v8.09Z"/><path class="cls-1" d="m66.13,25.33c-.07,0-.14-.03-.19-.08s-.08-.12-.08-.19v-8.08s0-.07-.01-.1c0-.03,0-.06,0-.09,0-.03.03-.05.07-.06.04-.01.1-.02.19-.02h2.2c.59,0,1.15.11,1.67.34.52.23.98.54,1.37.93.39.39.7.85.93,1.37.23.52.34,1.08.34,1.67s-.11,1.15-.34,1.68-.54.98-.93,1.37-.85.7-1.37.92c-.52.22-1.08.34-1.67.34h-2.17Zm5.95-4.31c0-.52-.1-1.01-.3-1.46-.2-.46-.47-.85-.81-1.2-.34-.34-.74-.61-1.2-.81-.46-.2-.94-.3-1.46-.3h-1.9v7.53h1.9c.52,0,1.01-.1,1.46-.29.46-.2.85-.46,1.2-.81.34-.34.61-.74.81-1.2.2-.46.3-.94.3-1.46Z"/></g></g></g></svg>